<mxfile host="app.diagrams.net" agent="Mozilla/5.0 (Windows NT 10.0; Win64; x64) AppleWebKit/537.36 (KHTML, like Gecko) Chrome/136.0.0.0 Safari/537.36" version="27.0.6">
  <diagram name="페이지-1" id="ztJUyA_ev0A8wsrdiSg2">
    <mxGraphModel dx="1681" dy="927" grid="0" gridSize="10" guides="1" tooltips="1" connect="1" arrows="1" fold="1" page="0" pageScale="1" pageWidth="827" pageHeight="1169" math="0" shadow="0">
      <root>
        <mxCell id="0" />
        <mxCell id="1" parent="0" />
        <mxCell id="iPC-y2pTWC_6fDQoEcE1-1" value="사용자" style="shape=umlActor;verticalLabelPosition=bottom;verticalAlign=top;html=1;outlineConnect=0;" parent="1" vertex="1">
          <mxGeometry x="-109" y="87" width="30" height="60" as="geometry" />
        </mxCell>
        <mxCell id="iPC-y2pTWC_6fDQoEcE1-2" value="로그인" style="ellipse;whiteSpace=wrap;html=1;" parent="1" vertex="1">
          <mxGeometry x="-295" y="50" width="120" height="80" as="geometry" />
        </mxCell>
        <mxCell id="iPC-y2pTWC_6fDQoEcE1-3" value="로그아웃" style="ellipse;whiteSpace=wrap;html=1;" parent="1" vertex="1">
          <mxGeometry x="-295" y="145" width="120" height="80" as="geometry" />
        </mxCell>
        <mxCell id="iPC-y2pTWC_6fDQoEcE1-4" value="비회원" style="shape=umlActor;verticalLabelPosition=bottom;verticalAlign=top;html=1;outlineConnect=0;" parent="1" vertex="1">
          <mxGeometry x="-105" y="253" width="30" height="60" as="geometry" />
        </mxCell>
        <mxCell id="iPC-y2pTWC_6fDQoEcE1-5" value="" style="endArrow=none;html=1;rounded=0;fontSize=12;startSize=8;endSize=8;curved=1;exitX=1;exitY=0.5;exitDx=0;exitDy=0;" parent="1" source="iPC-y2pTWC_6fDQoEcE1-2" target="iPC-y2pTWC_6fDQoEcE1-1" edge="1">
          <mxGeometry width="50" height="50" relative="1" as="geometry">
            <mxPoint x="-159" y="81" as="sourcePoint" />
            <mxPoint x="-109" y="31" as="targetPoint" />
          </mxGeometry>
        </mxCell>
        <mxCell id="iPC-y2pTWC_6fDQoEcE1-6" value="" style="endArrow=none;html=1;rounded=0;fontSize=12;startSize=8;endSize=8;curved=1;exitX=1;exitY=0.5;exitDx=0;exitDy=0;" parent="1" source="iPC-y2pTWC_6fDQoEcE1-3" target="iPC-y2pTWC_6fDQoEcE1-1" edge="1">
          <mxGeometry width="50" height="50" relative="1" as="geometry">
            <mxPoint x="-70" y="184" as="sourcePoint" />
            <mxPoint x="-20" y="134" as="targetPoint" />
          </mxGeometry>
        </mxCell>
        <mxCell id="iPC-y2pTWC_6fDQoEcE1-7" value="회원가입" style="ellipse;whiteSpace=wrap;html=1;" parent="1" vertex="1">
          <mxGeometry x="-289" y="260" width="120" height="80" as="geometry" />
        </mxCell>
        <mxCell id="iPC-y2pTWC_6fDQoEcE1-8" value="" style="endArrow=none;html=1;rounded=0;fontSize=12;startSize=8;endSize=8;curved=1;exitX=1;exitY=0.5;exitDx=0;exitDy=0;" parent="1" source="iPC-y2pTWC_6fDQoEcE1-7" edge="1">
          <mxGeometry width="50" height="50" relative="1" as="geometry">
            <mxPoint x="-169" y="297" as="sourcePoint" />
            <mxPoint x="-107" y="287" as="targetPoint" />
          </mxGeometry>
        </mxCell>
        <mxCell id="iPC-y2pTWC_6fDQoEcE1-10" value="관리자" style="shape=umlActor;verticalLabelPosition=bottom;verticalAlign=top;html=1;outlineConnect=0;" parent="1" vertex="1">
          <mxGeometry x="-10" y="12" width="30" height="60" as="geometry" />
        </mxCell>
        <mxCell id="iPC-y2pTWC_6fDQoEcE1-11" value="회원" style="shape=umlActor;verticalLabelPosition=bottom;verticalAlign=top;html=1;outlineConnect=0;" parent="1" vertex="1">
          <mxGeometry x="-10" y="145" width="30" height="60" as="geometry" />
        </mxCell>
        <mxCell id="iPC-y2pTWC_6fDQoEcE1-15" value="" style="endArrow=classic;html=1;rounded=0;fontSize=12;startSize=8;endSize=8;curved=1;" parent="1" source="iPC-y2pTWC_6fDQoEcE1-10" target="iPC-y2pTWC_6fDQoEcE1-1" edge="1">
          <mxGeometry width="50" height="50" relative="1" as="geometry">
            <mxPoint x="234" y="225" as="sourcePoint" />
            <mxPoint x="284" y="175" as="targetPoint" />
          </mxGeometry>
        </mxCell>
        <mxCell id="iPC-y2pTWC_6fDQoEcE1-17" value="" style="endArrow=classic;html=1;rounded=0;fontSize=12;startSize=8;endSize=8;curved=1;" parent="1" edge="1">
          <mxGeometry width="50" height="50" relative="1" as="geometry">
            <mxPoint x="-11" y="186" as="sourcePoint" />
            <mxPoint x="-76" y="119" as="targetPoint" />
          </mxGeometry>
        </mxCell>
        <mxCell id="iPC-y2pTWC_6fDQoEcE1-19" value="자전거 정보 등록" style="ellipse;whiteSpace=wrap;html=1;" parent="1" vertex="1">
          <mxGeometry x="84" y="-34" width="120" height="80" as="geometry" />
        </mxCell>
        <mxCell id="iPC-y2pTWC_6fDQoEcE1-20" value="자전거 대여" style="ellipse;whiteSpace=wrap;html=1;" parent="1" vertex="1">
          <mxGeometry x="71" y="95" width="120" height="80" as="geometry" />
        </mxCell>
        <mxCell id="iPC-y2pTWC_6fDQoEcE1-21" value="현재 대여 정보 조회" style="ellipse;whiteSpace=wrap;html=1;" parent="1" vertex="1">
          <mxGeometry x="78" y="190" width="120" height="80" as="geometry" />
        </mxCell>
        <mxCell id="iPC-y2pTWC_6fDQoEcE1-22" value="" style="endArrow=none;html=1;rounded=0;fontSize=12;startSize=8;endSize=8;curved=1;entryX=0;entryY=0.5;entryDx=0;entryDy=0;" parent="1" target="iPC-y2pTWC_6fDQoEcE1-19" edge="1">
          <mxGeometry width="50" height="50" relative="1" as="geometry">
            <mxPoint x="16" y="49" as="sourcePoint" />
            <mxPoint x="84" y="17" as="targetPoint" />
          </mxGeometry>
        </mxCell>
        <mxCell id="iPC-y2pTWC_6fDQoEcE1-24" value="" style="endArrow=none;html=1;rounded=0;fontSize=12;startSize=8;endSize=8;curved=1;entryX=0;entryY=0.5;entryDx=0;entryDy=0;" parent="1" target="iPC-y2pTWC_6fDQoEcE1-20" edge="1">
          <mxGeometry width="50" height="50" relative="1" as="geometry">
            <mxPoint x="13" y="177" as="sourcePoint" />
            <mxPoint x="284" y="175" as="targetPoint" />
          </mxGeometry>
        </mxCell>
        <mxCell id="iPC-y2pTWC_6fDQoEcE1-25" value="" style="endArrow=none;html=1;rounded=0;fontSize=12;startSize=8;endSize=8;curved=1;entryX=0;entryY=0.5;entryDx=0;entryDy=0;" parent="1" target="iPC-y2pTWC_6fDQoEcE1-21" edge="1">
          <mxGeometry width="50" height="50" relative="1" as="geometry">
            <mxPoint x="15" y="178" as="sourcePoint" />
            <mxPoint x="48" y="289" as="targetPoint" />
          </mxGeometry>
        </mxCell>
      </root>
    </mxGraphModel>
  </diagram>
</mxfile>
